<?xml version="1.0" encoding="UTF-8"?><svg xmlns="http://www.w3.org/2000/svg" xmlns:xlink="http://www.w3.org/1999/xlink" height="903.2" preserveAspectRatio="xMidYMid meet" version="1.0" viewBox="651.6 548.4 696.8 903.2" width="696.8" zoomAndPan="magnify"><g><g id="change1_1"><path d="M 1246.371094 856.789062 C 1212.699219 823.121094 1173.328125 797.210938 1130.460938 779.910156 C 1127.398438 786.671875 1124.328125 793.621094 1121.261719 800.769531 C 1241.039062 848.96875 1325.820312 966.351562 1325.820312 1103.171875 C 1325.820312 1282.820312 1179.660156 1428.980469 1000 1428.980469 C 820.34375 1428.980469 674.183594 1282.820312 674.183594 1103.171875 C 674.183594 923.511719 820.34375 777.351562 1000 777.351562 C 1021.179688 777.351562 1041.890625 779.410156 1061.960938 783.289062 C 1065.621094 776.199219 1069.308594 769.230469 1073.039062 762.390625 C 1049.289062 757.351562 1024.851562 754.738281 1000 754.738281 C 906.933594 754.738281 819.4375 790.988281 753.628906 856.789062 C 687.816406 922.601562 651.574219 1010.101562 651.574219 1103.171875 C 651.574219 1196.230469 687.816406 1283.730469 753.628906 1349.539062 C 819.4375 1415.351562 906.933594 1451.589844 1000 1451.589844 C 1093.070312 1451.589844 1180.558594 1415.351562 1246.371094 1349.539062 C 1312.179688 1283.730469 1348.421875 1196.230469 1348.421875 1103.171875 C 1348.421875 1010.101562 1312.179688 922.601562 1246.371094 856.789062" fill="#69a2cd"/></g><g id="change2_1"><path d="M 1266.550781 548.410156 C 1164.148438 623.800781 1050.539062 763.449219 950.835938 1113.230469 C 942.632812 1142.011719 932.144531 1169.949219 917.675781 1196.140625 C 912.5625 1205.398438 909.640625 1216.140625 909.640625 1227.578125 C 909.640625 1262.429688 936.722656 1290.671875 970.128906 1290.671875 C 1003.539062 1290.671875 1030.621094 1262.429688 1030.621094 1227.578125 C 1030.621094 1222.300781 1029.988281 1217.171875 1028.820312 1212.261719 C 1015.46875 1156.53125 1018.78125 1099.390625 1031.109375 1043.421875 C 1109.710938 686.519531 1266.550781 548.410156 1266.550781 548.410156" fill="#4f4c4c"/></g><g id="change3_1"><path d="M 1041.308594 1209.269531 C 1042.730469 1215.230469 1043.460938 1221.390625 1043.460938 1227.578125 C 1043.460938 1269.449219 1010.558594 1303.511719 970.128906 1303.511719 C 929.695312 1303.511719 896.800781 1269.449219 896.800781 1227.578125 C 896.800781 1214.371094 900.132812 1201.351562 906.4375 1189.941406 C 919.210938 1166.808594 929.695312 1140.570312 938.488281 1109.710938 C 939.113281 1107.519531 939.742188 1105.351562 940.367188 1103.171875 L 706.644531 1103.171875 C 706.644531 1265.179688 837.984375 1396.519531 1000 1396.519531 C 1162.019531 1396.519531 1293.351562 1265.179688 1293.351562 1103.171875 L 1034.621094 1103.171875 C 1031.140625 1141.070312 1033.371094 1176.128906 1041.308594 1209.269531" fill="#f3b87c"/></g></g></svg>