<?xml version="1.0" encoding="UTF-8"?><svg xmlns="http://www.w3.org/2000/svg" xmlns:xlink="http://www.w3.org/1999/xlink" height="45" preserveAspectRatio="xMidYMid meet" version="1.0" viewBox="0.0 0.0 116.2 110.4" width="45" zoomAndPan="magnify"><g id="change1_1"><path d="M85.469,91.625c0,8.771-7.115,15.891-15.889,15.891H18.723c-8.775,0-15.889-7.117-15.889-15.891V40.771 c0-8.773,7.115-15.892,15.889-15.892H69.58c8.775,0,15.889,7.114,15.889,15.892V91.625z" fill="#FFF"/></g><g id="change2_1"><path d="M69.58,110.352H18.723C8.401,110.352,0,101.953,0,91.625V40.771c0-10.325,8.4-18.726,18.723-18.726H69.58 c10.324,0,18.723,8.402,18.723,18.726v50.857C88.303,101.953,79.904,110.352,69.58,110.352z M18.723,27.714 c-7.199,0-13.055,5.858-13.055,13.056v50.855c0,7.201,5.857,13.055,13.055,13.055H69.58c7.199,0,13.055-5.854,13.055-13.055V40.771 c0-7.195-5.857-13.056-13.055-13.056L18.723,27.714L18.723,27.714z" fill="#00A79D"/></g><g id="change3_1"><path d="M113.051,0l-4.859,2.47C82.779,15.386,54.582,45.304,39.164,70.604c-1.506-2.811-1.953-3.732-3.365-6.836 c-6.006-10.789-14.145-20.436-18.123-24.13l-7.223,1.979l0.166,0.434c4.055,5.792,10.863,18.358,20.074,45.298 c0.625,1.189,1.299,2.373,2.102,3.488c2.107,2.939,4.545,3.82,6.219,4.041c0.002,0,0.002,0,0.002,0 c4.777,0.621,8.084-2.783,10.596-6.943c18.585-44.846,52.361-72.989,66.596-82.283L113.051,0z" fill="#154854"/></g></svg>